<?xml version="1.0" encoding="UTF-8" standalone="no"?>
<!-- Created with Inkscape (http://www.inkscape.org/) -->

<svg
   version="1.1"
   id="svg1"
   width="179"
   height="597"
   viewBox="0 0 179 597"
   sodipodi:docname="svg-web-impermax.svg"
   inkscape:version="1.4 (86a8ad7, 2024-10-11)"
   xmlns:inkscape="http://www.inkscape.org/namespaces/inkscape"
   xmlns:sodipodi="http://sodipodi.sourceforge.net/DTD/sodipodi-0.dtd"
   xmlns="http://www.w3.org/2000/svg"
   xmlns:svg="http://www.w3.org/2000/svg">
  <defs
     id="defs1" />
  <sodipodi:namedview
     id="namedview1"
     pagecolor="#ffffff"
     bordercolor="#000000"
     borderopacity="0.25"
     inkscape:showpageshadow="2"
     inkscape:pageopacity="0.0"
     inkscape:pagecheckerboard="0"
     inkscape:deskcolor="#d1d1d1"
     showgrid="false"
     inkscape:zoom="1.4254606"
     inkscape:cx="89.795535"
     inkscape:cy="298.5"
     inkscape:window-width="1920"
     inkscape:window-height="1111"
     inkscape:window-x="-9"
     inkscape:window-y="-9"
     inkscape:window-maximized="1"
     inkscape:current-layer="g1" />
  <g
     inkscape:groupmode="layer"
     inkscape:label="Image"
     id="g1">
    <path
       style="fill:#000000"
       d="m 46.209164,515.64019 v -76.44911 l -3.50148,-2.67071 c -1.92582,-1.46889 -8.52342,-5.11285 -14.66134,-8.09768 -14.14847,-6.88031 -16.83718,-8.78757 -16.83718,-11.94364 0,-9.87783 7.33143,-30.04321 15.04787,-41.38975 6.10175,-8.97225 5.76146,-19 -0.64476,-19 -3.79925,0 -5.74527,-11.50387 -2.8825,-17.03985 2.79935,-5.41335 12.33157,-8.48765 18.75025,-6.04727 5.58301,2.12266 11.76059,11.21358 8.84462,13.01575 -0.76588,0.47334 -1.06426,3.6454 -0.88534,9.4122 l 0.26986,8.69824 4,-0.58382 c 3.26136,-0.47602 5.01564,-0.0213 9.5,2.46235 7.24399,4.01208 7.35066,3.98366 9.39532,-2.50274 1.60548,-5.09318 1.62157,-5.73872 0.18262,-7.32874 -2.31284,-2.55566 -2.05869,-8.76894 0.42206,-10.31819 1.98717,-1.24101 2,-2.33203 2,-170.09181 0,-134.62977 0.25329,-168.7583526 1.25,-168.4261276 0.9921,0.3306894 1.30218,35.3176236 1.50289,169.5752676 0.22952,153.52275 0.40107,169.33169 1.856,171.03093 3.36856,3.93419 7.57691,16.28222 5.97003,17.51712 -0.95272,0.73217 -1.83366,4.50603 -2.51584,10.77755 -1.54053,14.1627 -1.184,13.73798 -8.96938,10.68493 -2.59356,-1.01707 -3.50372,-1.05094 -3.81461,-0.14197 -0.22457,0.65661 -1.05423,0.94596 -1.8437,0.64301 -2.13078,-0.81766 -1.80047,0.61106 2.14744,9.28833 8.14419,17.90044 9.10332,18.31034 30.125776,12.87484 16.92141,-4.37515 21.50377,-4.51315 24.90298,-0.75 1.36622,1.5125 8.22736,9.275 15.24698,17.25 l 12.76293,14.5 h 4.40721 c 4.27623,0 4.44004,-0.117 5.51175,-3.93674 2.36036,-8.41268 7.45954,-6.97322 7.45954,2.10578 0,5.93182 -7.63871,21.33096 -10.58117,21.33096 -0.77338,0 -5.04434,-3.2625 -9.49104,-7.25 -9.28853,-8.32933 -10.37259,-9.03473 -18.1935,-11.83848 -4.66765,-1.67333 -6.57211,-3.08899 -10,-7.43343 -6.61977,-8.38978 -10.73429,-7.23897 -10.73429,3.00231 0,2.36332 -5.86744,3.49391 -18.228936,3.51249 -2.60093,0.004 -8.22593,1.18719 -12.5,2.6295 -11.89932,4.0155 -14.27126,3.7872 -20.07832,-1.93255 l -4.84813,-4.77523 -3.6723,3.3637 -3.67231,3.3637 v 74.67899 c 0,65.71467 -0.18006,74.679 -1.5,74.679 -1.32025,0 -1.5,-9.16101 -1.5,-76.44911 z m -1.76116,-91.42307 c 3.13237,1.6764 2.89692,0.6583 -1.42573,-6.16491 -2.25192,-3.5546 -5.54729,-9.07823 -7.32305,-12.27472 -2.26546,-4.07802 -3.40743,-5.34589 -3.82796,-4.25 -0.32963,0.85899 -1.28845,1.56181 -2.13071,1.56181 -0.84227,0 -1.53139,0.41547 -1.53139,0.92327 0,0.50781 -1.18785,2.33496 -2.63966,4.06034 -3.02992,3.60085 -3.44077,2.97347 7.13966,10.90239 4.7223,3.53887 8.37005,5.62897 8.9032,5.10138 0.5309,-0.52536 1.69974,-0.46747 2.83564,0.14044 z"
       id="path1" />
  </g>
</svg>
